<svg width="1440" height="787" viewBox="0 0 1440 787" fill="none" xmlns="http://www.w3.org/2000/svg">
<path d="M713 787C767.222 722.622 769.254 654.876 794.271 593.542C819.289 532.209 855.957 476.479 902.183 429.537C948.409 382.594 1003.29 345.357 1063.68 319.952C1124.08 294.546 1188.82 281.47 1254.19 281.47C1319.56 281.47 1429.79 276.118 1490.18 301.523C1550.58 326.928 1559.97 382.594 1606.19 429.537C1652.42 476.479 1689.09 532.209 1714.11 593.542C1739.12 654.876 1752 720.613 1752 787L1254.19 787H713Z" fill="#000066"/>
<path d="M241 787C188.5 737.889 186.533 686.21 162.31 639.422C138.087 592.633 102.583 550.121 57.8255 514.311C13.0676 478.5 -40.0677 450.094 -98.5466 430.714C-157.026 411.334 -219.703 401.359 -283 401.359C-346.297 401.359 -453.021 397.275 -511.5 416.656C-569.979 436.036 -579.068 478.5 -623.825 514.311C-668.583 550.121 -704.087 592.633 -728.31 639.422C-752.533 686.21 -765 736.357 -765 787L-283 787H241Z" fill="#000066"/>
<ellipse cx="1127.15" cy="66.6665" rx="83.8509" ry="78.6665" fill="#FCE77A"/>
<ellipse cx="1211" cy="77.5" rx="61" ry="57.5" fill="#FCE77A"/>
<ellipse cx="1301.5" cy="77.5" rx="68.5" ry="65.5" fill="#FCE77A"/>
<ellipse cx="1397.15" cy="124.879" rx="83.8509" ry="78.6665" fill="#FCE77A"/>
<ellipse cx="1269.7" cy="145.333" rx="83.8509" ry="78.6665" fill="#FCE77A"/>
<ellipse cx="1149" cy="135" rx="51" ry="50" fill="#FCE77A"/>
<ellipse cx="1039.85" cy="132.666" rx="83.8509" ry="78.6665" fill="#FCE77A"/>
<ellipse cx="991.851" cy="84.6665" rx="83.8509" ry="78.6665" fill="#FCE77A"/>
<ellipse cx="932" cy="135.5" rx="47" ry="44.5" fill="#FCE77A"/>
<circle cx="832.577" cy="167.113" r="50" transform="rotate(-7.5 832.577 167.113)" fill="#FFF0A3"/>
<circle cx="884.107" cy="175.458" r="50" transform="rotate(-7.5 884.107 175.458)" fill="#FFF0A3"/>
<circle cx="943.802" cy="161.548" r="50" transform="rotate(-7.5 943.802 161.548)" fill="#FFF0A3"/>
<circle cx="997.029" cy="182.782" r="50" transform="rotate(-7.5 997.029 182.782)" fill="#FFF0A3"/>
<circle cx="923.376" cy="205.591" r="50" transform="rotate(-7.5 923.376 205.591)" fill="#FFF0A3"/>
<circle cx="854.261" cy="201.577" r="50" transform="rotate(-7.5 854.261 201.577)" fill="#FFF0A3"/>
<circle cx="774.057" cy="189.947" r="50" transform="rotate(-7.5 774.057 189.947)" fill="#FFF0A3"/>
<path d="M681.814 15.5136C681.044 -15.8072 656.976 -40.544 628.056 -39.7375C599.137 -38.931 576.317 -12.8867 577.087 18.4341C577.858 49.755 601.926 74.4917 630.845 73.6853C659.765 72.8788 682.585 46.8344 681.814 15.5136Z" fill="#FCE77A"/>
<ellipse cx="66.766" cy="72.7" rx="66.766" ry="72.7" transform="matrix(0.999611 -0.027876 -0.0245813 -0.999698 638.803 85.9932)" fill="#FCE77A"/>
<ellipse cx="45.5967" cy="45.0931" rx="45.5967" ry="45.0931" transform="matrix(0.999611 -0.027876 -0.0245813 -0.999698 685.44 5.46387)" fill="#FCE77A"/>
<ellipse cx="59.193" cy="64.5716" rx="59.193" ry="64.5716" transform="matrix(0.999611 -0.027876 -0.0245813 -0.999698 597.966 31.7783)" fill="#FCE77A"/>
<ellipse cx="49.7706" cy="51.3375" rx="49.7706" ry="51.3375" transform="matrix(0.999611 -0.027876 -0.0245813 -0.999698 529.815 40.6914)" fill="#FCE77A"/>
<ellipse cx="42.6386" cy="45.2692" rx="42.6386" ry="45.2692" transform="matrix(0.999611 -0.027876 -0.0245813 -0.999698 746.705 40.1992)" fill="#FCE77A"/>
<path d="M551.346 12.3554C550.576 -18.9654 526.507 -43.7022 497.588 -42.8957C468.668 -42.0893 445.849 -16.0449 446.619 15.2759C447.389 46.5968 471.457 71.3335 500.377 70.5271C529.296 69.7206 552.116 43.6762 551.346 12.3554Z" fill="#FCE77A"/>
<ellipse cx="66.766" cy="72.7" rx="66.766" ry="72.7" transform="matrix(0.999611 -0.027876 -0.0245813 -0.999698 508.334 82.835)" fill="#FCE77A"/>
<ellipse cx="45.5967" cy="45.0931" rx="45.5967" ry="45.0931" transform="matrix(0.999611 -0.027876 -0.0245813 -0.999698 554.971 2.30469)" fill="#FCE77A"/>
<ellipse cx="59.193" cy="64.5716" rx="59.193" ry="64.5716" transform="matrix(0.999611 -0.027876 -0.0245813 -0.999698 467.497 28.6211)" fill="#FCE77A"/>
<ellipse cx="49.7706" cy="51.3375" rx="49.7706" ry="51.3375" transform="matrix(0.999611 -0.027876 -0.0245813 -0.999698 399.346 37.5342)" fill="#FCE77A"/>
<ellipse cx="42.6386" cy="45.2692" rx="42.6386" ry="45.2692" transform="matrix(0.999611 -0.027876 -0.0245813 -0.999698 616.236 37.042)" fill="#FCE77A"/>
<path d="M352.96 154.814C353.739 184.57 378.09 208.07 407.349 207.304C436.608 206.538 459.695 181.795 458.916 152.04C458.137 122.284 433.786 98.7832 404.527 99.5494C375.268 100.316 352.181 125.058 352.96 154.814Z" fill="#FCE77A"/>
<ellipse cx="67.5466" cy="69.0699" rx="67.5466" ry="69.0699" transform="matrix(-0.999657 0.0261769 0.0261769 0.999657 396.477 87.8564)" fill="#FCE77A"/>
<ellipse cx="46.1298" cy="42.8415" rx="46.1298" ry="42.8415" transform="matrix(-0.999657 0.0261769 0.0261769 0.999657 349.292 164.362)" fill="#FCE77A"/>
<ellipse cx="59.8851" cy="61.3473" rx="59.8851" ry="61.3473" transform="matrix(-0.999657 0.0261769 0.0261769 0.999657 437.793 139.362)" fill="#FCE77A"/>
<ellipse cx="50.3525" cy="48.774" rx="50.3525" ry="48.774" transform="matrix(-0.999657 0.0261769 0.0261769 0.999657 506.744 130.895)" fill="#FCE77A"/>
<ellipse cx="43.1371" cy="43.0088" rx="43.1371" ry="43.0088" transform="matrix(-0.999657 0.0261769 0.0261769 0.999657 287.309 131.362)" fill="#FCE77A"/>
<ellipse cx="83.8509" cy="78.6665" rx="83.8509" ry="78.6665" transform="matrix(-0.995396 -0.0958458 -0.0958458 0.995396 391.307 143.952)" fill="#FFF0A3"/>
<ellipse cx="83.8509" cy="78.6665" rx="83.8509" ry="78.6665" transform="matrix(-0.995396 -0.0958458 -0.0958458 0.995396 305.58 159.406)" fill="#FFF0A3"/>
<ellipse cx="83.8509" cy="78.6665" rx="83.8509" ry="78.6665" transform="matrix(-0.995396 -0.0958458 -0.0958458 0.995396 204.657 140.204)" fill="#FFF0A3"/>
<ellipse cx="83.8509" cy="78.6665" rx="83.8509" ry="78.6665" transform="matrix(-0.995396 -0.0958458 -0.0958458 0.995396 116.97 176.019)" fill="#FFF0A3"/>
<ellipse cx="83.8509" cy="78.6665" rx="83.8509" ry="78.6665" transform="matrix(-0.995396 -0.0958458 -0.0958458 0.995396 241.876 208.595)" fill="#FFF0A3"/>
<ellipse cx="83.8509" cy="78.6665" rx="83.8509" ry="78.6665" transform="matrix(-0.995396 -0.0958458 -0.0958458 0.995396 357.349 199.165)" fill="#FFF0A3"/>
<ellipse cx="83.8509" cy="78.6665" rx="83.8509" ry="78.6665" transform="matrix(-0.995396 -0.0958458 -0.0958458 0.995396 490.872 177.247)" fill="#FFF0A3"/>
</svg>
