<svg width="96" height="55" viewBox="0 0 96 55" fill="none" xmlns="http://www.w3.org/2000/svg">
<path d="M40.1011 8.98516C40.1011 10.743 36.7206 12.1681 32.5506 12.1681C28.3805 12.1681 25 10.743 25 8.98516C25 7.22729 27.4062 8.23141 31.4719 8.86797C35.642 8.86797 40.1011 7.22729 40.1011 8.98516Z" fill="#000066"/>
<path d="M57.1685 1.92278C57.1685 0.979308 58.0957 0.315185 58.9889 0.618834L61.072 1.32692C61.6883 1.53642 62.3565 1.53642 62.9728 1.32692L65.0558 0.618835C65.9491 0.315185 66.8763 0.979309 66.8763 1.92278C66.8763 2.6834 66.2597 3.3 65.4991 3.3H58.5457C57.7851 3.3 57.1685 2.6834 57.1685 1.92278Z" fill="#000066"/>
<ellipse cx="78.2023" cy="35.7501" rx="17.7978" ry="18.15" fill="#000066"/>
<path d="M91.6852 35.75C91.6852 43.3439 85.6486 49.5 78.2021 49.5C70.7556 49.5 64.7189 43.3439 64.7189 35.75C64.7189 28.1561 70.7556 22 78.2021 22C85.6486 22 91.6852 28.1561 91.6852 35.75Z" fill="#F5F6FA"/>
<ellipse cx="77.663" cy="35.1999" rx="3.23595" ry="3.3" fill="#000066"/>
<ellipse cx="17.7978" cy="36.85" rx="17.7978" ry="18.15" fill="#000066"/>
<path d="M31.2809 36.8501C31.2809 44.444 25.2443 50.6001 17.7978 50.6001C10.3513 50.6001 4.31465 44.444 4.31465 36.8501C4.31465 29.2562 10.3513 23.1001 17.7978 23.1001C25.2443 23.1001 31.2809 29.2562 31.2809 36.8501Z" fill="#F5F6FA"/>
<ellipse cx="17.2584" cy="36.3" rx="3.23595" ry="3.3" fill="#000066"/>
<line x1="16.1797" y1="37.5" x2="45.3033" y2="37.5" stroke="#000066" stroke-width="2"/>
<line y1="-1" x2="33.6807" y2="-1" transform="matrix(0.704567 -0.709637 0.695695 0.718337 45.3035 38.5)" stroke="#000066" stroke-width="2"/>
<line y1="-1" x2="32.6573" y2="-1" transform="matrix(0.990882 -0.134732 0.129642 0.991561 35.5955 17.6001)" stroke="#000066" stroke-width="2"/>
<line y1="-1" x2="11.5953" y2="-1" transform="matrix(0.651174 -0.758928 0.746138 0.665792 29.1235 26.3999)" stroke="#000066" stroke-width="2"/>
<line x1="44.3902" y1="36.708" x2="33.087" y2="11.4079" stroke="#000066" stroke-width="2"/>
<line y1="-1" x2="36.753" y2="-1" transform="matrix(0.44023 0.897885 -0.890873 0.454253 61.4832 3.30005)" stroke="#000066" stroke-width="2"/>
</svg>
