<svg width="1440" height="696" viewBox="0 0 1440 696" fill="none" xmlns="http://www.w3.org/2000/svg">
<path d="M1186 3.2908e-05C1238.5 65.778 1240.47 134.996 1264.69 197.663C1288.91 260.33 1324.42 317.271 1369.17 365.234C1413.93 413.198 1467.07 451.244 1525.55 477.202C1584.03 503.159 1646.7 516.519 1710 516.519C1773.3 516.519 1880.02 521.989 1938.5 496.031C1996.98 470.073 2006.07 413.198 2050.83 365.234C2095.58 317.271 2131.09 260.33 2155.31 197.663C2179.53 134.996 2192 67.8303 2192 0L1710 3.2908e-05L1186 3.2908e-05Z" fill="#000066"/>
<path d="M720 4.43016e-05C665.778 88.5522 663.746 181.736 638.729 266.1C613.711 350.464 577.043 427.119 530.817 491.689C484.591 556.258 429.712 607.478 369.315 642.422C308.918 677.367 244.185 695.353 178.811 695.353C113.438 695.353 3.21283 702.716 -57.1844 667.771C-117.582 632.826 -126.968 556.258 -173.195 491.689C-219.421 427.119 -256.089 350.464 -281.106 266.1C-306.124 181.736 -319 91.315 -319 0L178.811 4.43016e-05L720 4.43016e-05Z" fill="#000066"/>
</svg>
