<svg width="1440" height="646" viewBox="0 0 1440 646" fill="none" xmlns="http://www.w3.org/2000/svg">
<path d="M1186 3.05176e-05C1238.5 61 1240.47 125.19 1264.69 183.305C1288.91 241.42 1324.42 294.225 1369.17 338.704C1413.93 383.183 1467.07 418.466 1525.55 442.538C1584.03 466.61 1646.7 479 1710 479C1773.3 479 1880.02 484.072 1938.5 460C1996.98 435.928 2006.07 383.183 2050.83 338.704C2095.58 294.225 2131.09 241.42 2155.31 183.305C2179.53 125.19 2192 62.9032 2192 0L1710 3.05176e-05L1186 3.05176e-05Z" fill="#000066"/>
<path d="M720 79C665.778 151.14 663.746 227.052 638.729 295.78C613.711 364.507 577.043 426.955 530.817 479.557C484.591 532.159 429.712 573.885 369.315 602.353C308.918 630.821 244.185 645.473 178.811 645.473C113.438 645.473 3.21284 651.471 -57.1844 623.003C-117.582 594.535 -126.968 532.159 -173.195 479.557C-219.421 426.955 -256.089 364.507 -281.106 295.78C-306.124 227.052 -319 153.39 -319 79L178.811 79L720 79Z" fill="#000066"/>
</svg>
