<svg width="818" height="107" viewBox="0 0 818 107" fill="none" xmlns="http://www.w3.org/2000/svg">
<path d="M50.0781 33.7812C50.0781 33.2083 49.9479 32.349 49.6875 31.2031C49.4271 30.0573 49.1146 28.7552 48.75 27.2969C48.3854 25.7865 47.9688 24.1979 47.5 22.5312C47.0312 20.8125 46.6146 19.1458 46.25 17.5312C45.8854 15.9167 45.5729 14.4062 45.3125 13C45.0521 11.5938 44.9219 10.4219 44.9219 9.48438C44.9219 8.28646 45.2604 7.32292 45.9375 6.59375C46.6146 5.8125 47.474 5.21354 48.5156 4.79688C49.5573 4.38021 50.6771 4.09375 51.875 3.9375C53.0729 3.78125 54.2188 3.70312 55.3125 3.70312C56.6667 3.70312 57.9688 4.09375 59.2188 4.875C60.5208 5.60417 61.4062 6.93229 61.875 8.85938C62.4479 10.8906 62.9167 12.9479 63.2812 15.0312C63.6979 17.0625 64.0625 19.0677 64.375 21.0469C64.6875 22.974 64.974 24.849 65.2344 26.6719C65.5469 28.4948 65.8594 30.1875 66.1719 31.75C66.4844 33 66.875 33.9896 67.3438 34.7188C67.8646 35.4479 68.4635 36.0208 69.1406 36.4375C69.8698 36.8021 70.625 37.0365 71.4062 37.1406C72.2396 37.2448 73.125 37.2969 74.0625 37.2969C75.1042 37.2969 76.224 37.1927 77.4219 36.9844C78.6198 36.776 79.7917 36.6719 80.9375 36.6719C81.6667 36.6719 82.3698 36.8021 83.0469 37.0625C83.776 37.2708 84.4271 37.6875 85 38.3125C85.5729 38.8854 86.0156 39.6927 86.3281 40.7344C86.6927 41.776 86.875 43.1042 86.875 44.7188C86.875 46.0729 86.6146 47.2188 86.0938 48.1562C85.5729 49.0417 84.5833 49.6406 83.125 49.9531L80.3125 50.5781C79.4271 50.7344 78.5938 50.8646 77.8125 50.9688C77.0833 51.0208 76.1458 51.099 75 51.2031C72.5521 51.4635 71.3281 52.5312 71.3281 54.4062C71.3281 54.5625 71.4323 55.2656 71.6406 56.5156C71.849 57.7656 72.1094 59.3281 72.4219 61.2031C72.7865 63.026 73.1771 65.0573 73.5938 67.2969C74.0104 69.4844 74.401 71.5938 74.7656 73.625C75.1823 75.6562 75.5469 77.4792 75.8594 79.0938C76.1719 80.6562 76.4062 81.776 76.5625 82.4531C76.8229 83.599 77.0312 84.4844 77.1875 85.1094C77.3438 85.7344 77.4219 86.5938 77.4219 87.6875C77.4219 88.5208 77.1875 89.3542 76.7188 90.1875C76.25 90.9688 75.5469 91.6719 74.6094 92.2969C73.724 92.9219 72.6302 93.4167 71.3281 93.7812C70.026 94.1979 68.5417 94.4062 66.875 94.4062C65.0521 94.4062 63.724 93.8594 62.8906 92.7656C62.1094 91.6198 61.5625 90.3177 61.25 88.8594C60.5729 86.151 59.9219 83.3646 59.2969 80.5C58.724 77.6354 58.151 74.7969 57.5781 71.9844C57.0573 69.1719 56.5365 66.4375 56.0156 63.7812C55.5469 61.0729 55.1042 58.4948 54.6875 56.0469C54.4271 54.901 53.9583 54.0677 53.2812 53.5469C52.6042 52.974 51.7448 52.6875 50.7031 52.6875C47.1615 52.6875 43.5938 52.8177 40 53.0781C36.4583 53.2865 32.9688 53.4688 29.5312 53.625C28.3333 53.7292 27.3958 54.1198 26.7188 54.7969C26.0417 55.474 25.7031 56.3594 25.7031 57.4531C25.7031 59.901 25.7292 62.3229 25.7812 64.7188C25.8333 67.1146 25.8594 69.5625 25.8594 72.0625C25.8594 74.9271 25.8073 77.8698 25.7031 80.8906C25.651 83.9115 25.5469 86.8281 25.3906 89.6406C25.2865 90.6823 24.974 91.5417 24.4531 92.2188C23.9844 92.8958 23.3594 93.4427 22.5781 93.8594C21.849 94.276 20.9896 94.5625 20 94.7188C19.0625 94.875 18.099 94.9531 17.1094 94.9531C14.6615 94.9531 12.7604 94.5365 11.4062 93.7031C10.0521 92.9219 9.375 91.5677 9.375 89.6406C9.375 86.724 9.45312 83.6771 9.60938 80.5C9.76562 77.3229 9.84375 74.1198 9.84375 70.8906C9.84375 68.7031 9.81771 66.5938 9.76562 64.5625C9.71354 62.4792 9.6875 60.3438 9.6875 58.1562C9.6875 57.1667 9.45312 56.4375 8.98438 55.9688C8.56771 55.4479 8.04688 55.0312 7.42188 54.7188C6.79688 54.4062 6.09375 54.1198 5.3125 53.8594C4.53125 53.5469 3.82812 53.1042 3.20312 52.5312C2.57812 51.9583 2.03125 51.125 1.5625 50.0312C1.14583 48.9375 0.9375 47.4271 0.9375 45.5C0.9375 44.4583 1.11979 43.651 1.48438 43.0781C1.90104 42.4531 2.39583 41.9583 2.96875 41.5938C3.59375 41.2292 4.24479 40.9427 4.92188 40.7344C5.59896 40.474 6.22396 40.1615 6.79688 39.7969C7.42188 39.4323 7.91667 38.9896 8.28125 38.4688C8.69792 37.8958 8.90625 37.0885 8.90625 36.0469C8.90625 35.4219 8.88021 34.6927 8.82812 33.8594C8.77604 32.974 8.72396 32.1406 8.67188 31.3594C8.61979 30.5781 8.56771 29.901 8.51562 29.3281C8.46354 28.7031 8.4375 28.2865 8.4375 28.0781C8.4375 26.3073 8.67188 24.901 9.14062 23.8594C9.66146 22.7656 10.2865 21.9583 11.0156 21.4375C11.7448 20.8646 12.5521 20.5 13.4375 20.3438C14.375 20.1354 15.2604 20.0312 16.0938 20.0312C19.2188 20.0312 21.3802 20.6302 22.5781 21.8281C23.8281 22.974 24.5052 24.6667 24.6094 26.9062L24.9219 35.1094C25.026 36.3594 25.3646 37.3229 25.9375 38C26.5104 38.625 27.4479 38.9375 28.75 38.9375L46.4844 38.3125C47.9948 38.2083 48.9583 37.7917 49.375 37.0625C49.8438 36.3333 50.0781 35.2396 50.0781 33.7812ZM175.781 96.3594C175.417 89.4323 174.818 83.0521 173.984 77.2188C173.203 71.3333 172.37 66.2031 171.484 61.8281C170.651 57.4531 169.896 53.9115 169.219 51.2031C168.594 48.4948 168.281 46.8021 168.281 46.125C168.281 45.1354 168.646 44.1719 169.375 43.2344C170.156 42.2969 171.12 41.4896 172.266 40.8125C173.411 40.0833 174.635 39.5104 175.938 39.0938C177.292 38.6771 178.516 38.4688 179.609 38.4688C180.495 38.4688 181.25 38.625 181.875 38.9375C182.552 39.25 183.021 39.7708 183.281 40.5C183.542 41.3854 183.776 42.3229 183.984 43.3125C184.245 44.25 184.505 45.3958 184.766 46.75C185.078 48.6771 185.495 49.6406 186.016 49.6406C186.589 49.6406 187.24 48.7812 187.969 47.0625C189.01 44.6667 190.13 42.6875 191.328 41.125C192.526 39.5625 193.802 38.3385 195.156 37.4531C196.562 36.5156 197.995 35.8646 199.453 35.5C200.964 35.1354 202.526 34.9531 204.141 34.9531C209.036 34.9531 213.177 36.8802 216.562 40.7344C220 44.5885 222.682 50.1615 224.609 57.4531C224.87 58.2865 225.104 58.8333 225.312 59.0938C225.521 59.3021 225.755 59.4062 226.016 59.4062C226.276 59.4062 226.536 59.3021 226.797 59.0938C227.109 58.8333 227.396 58.3385 227.656 57.6094C228.906 54.224 230.365 51.3594 232.031 49.0156C233.698 46.6198 235.417 44.6927 237.188 43.2344C239.01 41.724 240.859 40.6302 242.734 39.9531C244.609 39.276 246.406 38.9375 248.125 38.9375C251.302 38.9375 254.167 40.1094 256.719 42.4531C259.323 44.7448 261.615 48.3125 263.594 53.1562C265.625 57.9479 267.37 64.0417 268.828 71.4375C270.339 78.7812 271.589 87.5052 272.578 97.6094C272.578 100.422 271.719 102.375 270 103.469C268.281 104.615 265.938 105.188 262.969 105.188C261.042 105.188 259.531 104.771 258.438 103.938C257.344 103.104 256.719 102.01 256.562 100.656C255.885 93.4167 255.13 86.9844 254.297 81.3594C253.516 75.6823 252.656 70.9167 251.719 67.0625C250.781 63.1562 249.74 60.1875 248.594 58.1562C247.5 56.125 246.276 55.1094 244.922 55.1094C244.245 55.1094 243.385 55.6042 242.344 56.5938C241.354 57.5833 240.286 59.4062 239.141 62.0625C237.995 64.6667 236.797 68.2604 235.547 72.8438C234.297 77.375 233.099 83.1823 231.953 90.2656C231.641 92.2448 230.677 93.7552 229.062 94.7969C227.5 95.8385 225.573 96.3594 223.281 96.3594C220.625 96.3594 218.776 95.9427 217.734 95.1094C216.745 94.276 216.198 92.8698 216.094 90.8906C215.885 87.4531 215.521 84.0417 215 80.6562C214.531 77.2188 213.932 73.9635 213.203 70.8906C212.474 67.7656 211.667 64.901 210.781 62.2969C209.896 59.6406 208.958 57.349 207.969 55.4219C206.979 53.4427 205.964 51.9062 204.922 50.8125C203.88 49.7188 202.865 49.1719 201.875 49.1719C200.573 49.1719 199.297 50.0833 198.047 51.9062C196.849 53.7292 195.755 56.3073 194.766 59.6406C193.828 62.974 193.073 66.9844 192.5 71.6719C191.927 76.3594 191.641 81.5938 191.641 87.375C191.641 88.3646 191.667 89.3542 191.719 90.3438C191.771 91.2812 191.797 92.2708 191.797 93.3125C191.797 94.875 191.536 96.151 191.016 97.1406C190.547 98.1302 189.844 98.9115 188.906 99.4844C188.021 100.057 186.979 100.448 185.781 100.656C184.583 100.865 183.281 100.969 181.875 100.969C180.573 100.969 179.531 100.865 178.75 100.656C177.969 100.5 177.37 100.24 176.953 99.875C176.536 99.5104 176.25 99.0156 176.094 98.3906C175.938 97.8177 175.833 97.1406 175.781 96.3594ZM348.906 75.8906C350.417 74.5885 351.901 73.9375 353.359 73.9375C354.193 73.9375 354.948 74.1458 355.625 74.5625C356.302 74.9792 357.057 75.6302 357.891 76.5156C358.672 77.7135 359.219 78.7031 359.531 79.4844C359.896 80.2135 360.078 80.9427 360.078 81.6719C360.078 83.2344 359.297 84.7188 357.734 86.125C355.234 88.2083 352.526 90.0833 349.609 91.75C346.693 93.3646 343.646 94.7448 340.469 95.8906C337.292 97.0365 334.01 97.8958 330.625 98.4688C327.24 99.0938 323.88 99.4062 320.547 99.4062C316.328 99.4062 312.37 98.8594 308.672 97.7656C304.974 96.724 301.667 95.2135 298.75 93.2344C295.885 91.2552 293.464 88.8854 291.484 86.125C289.505 83.3125 288.099 80.1615 287.266 76.6719C286.797 75.2135 286.354 74.276 285.938 73.8594C285.573 73.3906 284.948 73.1562 284.062 73.1562C282.135 73.1562 280.651 72.6875 279.609 71.75C278.568 70.8125 278.047 69.4583 278.047 67.6875C278.047 66.9583 278.099 66.4896 278.203 66.2812L278.359 64.7188C278.62 62.8438 279.115 61.4896 279.844 60.6562C280.625 59.8229 281.823 59.4062 283.438 59.4062H284.609C286.797 59.4062 288.333 58.3906 289.219 56.3594C290.833 52.7656 292.891 49.4844 295.391 46.5156C297.891 43.5469 300.703 41.0208 303.828 38.9375C306.953 36.8021 310.286 35.1615 313.828 34.0156C317.422 32.8177 321.068 32.2188 324.766 32.2188C328.62 32.2188 332.214 32.7917 335.547 33.9375C338.932 35.0312 341.875 36.5677 344.375 38.5469C346.875 40.526 348.828 42.8438 350.234 45.5C351.693 48.1562 352.422 51.0208 352.422 54.0938C352.422 56.2292 352.005 58.1823 351.172 59.9531C350.339 61.724 349.141 63.2865 347.578 64.6406C346.016 65.9427 344.115 67.0104 341.875 67.8438C339.688 68.6771 337.188 69.224 334.375 69.4844L307.266 72.2188C306.224 72.2188 305.365 72.4792 304.688 73C304.062 73.5208 303.75 74.224 303.75 75.1094C303.75 76.4635 304.245 77.7656 305.234 79.0156C306.276 80.2656 307.63 81.3854 309.297 82.375C311.016 83.3125 312.969 84.0677 315.156 84.6406C317.396 85.2135 319.688 85.5 322.031 85.5C324.271 85.5 326.562 85.2917 328.906 84.875C331.302 84.4062 333.646 83.7552 335.938 82.9219C338.281 82.0885 340.547 81.099 342.734 79.9531C344.922 78.7552 346.979 77.401 348.906 75.8906ZM331.484 55.7344C332.266 55.5781 332.943 55.2135 333.516 54.6406C334.089 54.0156 334.375 53.2604 334.375 52.375C334.375 51.5938 334.089 50.8646 333.516 50.1875C332.943 49.5104 332.161 48.9115 331.172 48.3906C330.182 47.8177 329.036 47.375 327.734 47.0625C326.432 46.75 325.052 46.5938 323.594 46.5938C321.458 46.5938 319.271 46.9062 317.031 47.5312C314.792 48.1562 312.76 48.9896 310.938 50.0312C309.115 51.0208 307.63 52.1406 306.484 53.3906C305.339 54.5885 304.766 55.7865 304.766 56.9844C304.766 58.1823 305.495 58.7812 306.953 58.7812C307.839 58.7812 309.271 58.6771 311.25 58.4688C313.229 58.2604 315.417 58.026 317.812 57.7656C320.208 57.4531 322.63 57.1146 325.078 56.75C327.526 56.3854 329.661 56.0469 331.484 55.7344ZM412.891 99.875C412.057 90.2917 410.964 80.8125 409.609 71.4375C408.307 62.0625 406.719 52.6094 404.844 43.0781C404.688 42.4531 404.479 41.9583 404.219 41.5938C404.01 41.1771 403.698 40.9688 403.281 40.9688C402.969 40.9688 402.604 40.9948 402.188 41.0469C401.823 41.099 401.432 41.125 401.016 41.125C399.036 41.125 397.5 40.6302 396.406 39.6406C395.312 38.651 394.766 37.401 394.766 35.8906C394.766 34.1719 395.469 32.5052 396.875 30.8906C398.333 29.276 400.234 27.7656 402.578 26.3594C404.922 24.901 407.604 23.5729 410.625 22.375C413.646 21.1771 416.745 20.1615 419.922 19.3281C423.151 18.4427 426.328 17.7656 429.453 17.2969C432.578 16.776 435.417 16.5156 437.969 16.5156C442.604 16.5156 446.589 17.0885 449.922 18.2344C453.307 19.3802 456.068 20.8906 458.203 22.7656C460.391 24.6406 461.979 26.8021 462.969 29.25C464.01 31.6979 464.531 34.224 464.531 36.8281C464.531 39.4323 463.958 42.2969 462.812 45.4219C461.719 48.4948 459.844 51.4375 457.188 54.25C456.875 54.6146 456.667 54.9271 456.562 55.1875C456.458 55.3958 456.406 55.6302 456.406 55.8906C456.406 56.3594 456.927 56.6719 457.969 56.8281C460.99 57.0885 463.906 57.8177 466.719 59.0156C469.583 60.2135 472.083 61.776 474.219 63.7031C476.354 65.5781 478.073 67.7917 479.375 70.3438C480.677 72.8958 481.328 75.6042 481.328 78.4688C481.328 82.4792 480.547 85.9948 478.984 89.0156C477.474 91.9844 475.365 94.4583 472.656 96.4375C469.948 98.4167 466.719 99.875 462.969 100.812C459.271 101.802 455.26 102.297 450.938 102.297C447.552 102.297 444.141 101.984 440.703 101.359C437.318 100.786 434.01 100.031 430.781 99.0938C430.573 98.9896 430.26 98.9375 429.844 98.9375C428.958 98.9375 428.255 99.4583 427.734 100.5C426.849 102.271 425.573 103.651 423.906 104.641C422.292 105.63 420.651 106.125 418.984 106.125C417.474 106.125 416.146 105.63 415 104.641C413.854 103.703 413.151 102.115 412.891 99.875ZM428.047 70.1094C426.901 70.526 426.328 71.3333 426.328 72.5312C426.328 72.6875 426.38 73.2604 426.484 74.25C426.641 75.2396 426.823 76.3073 427.031 77.4531C427.24 78.8073 427.474 80.2656 427.734 81.8281C427.891 83.1823 428.594 84.0156 429.844 84.3281C431.458 84.7969 433.229 85.2917 435.156 85.8125C437.083 86.2812 439.089 86.724 441.172 87.1406C443.255 87.5573 445.365 87.8958 447.5 88.1562C449.635 88.4167 451.693 88.5469 453.672 88.5469C455.182 88.5469 456.641 88.3906 458.047 88.0781C459.453 87.7135 460.703 87.1667 461.797 86.4375C462.891 85.7083 463.75 84.7969 464.375 83.7031C465.052 82.5573 465.391 81.1771 465.391 79.5625C465.391 77.2188 464.74 75.2396 463.438 73.625C462.135 72.0104 460.495 70.7083 458.516 69.7188C456.536 68.7292 454.375 68.026 452.031 67.6094C449.688 67.1406 447.474 66.9062 445.391 66.9062C442.578 66.9062 439.714 67.2188 436.797 67.8438C433.932 68.4688 431.016 69.224 428.047 70.1094ZM422.031 32.8438C421.458 33 421.016 33.1823 420.703 33.3906C420.391 33.599 420.234 33.9896 420.234 34.5625C420.234 35.1354 420.339 36.1771 420.547 37.6875C420.807 39.1458 421.094 40.8125 421.406 42.6875C421.771 44.5625 422.135 46.5156 422.5 48.5469C422.917 50.526 423.281 52.3229 423.594 53.9375C423.698 54.9271 423.906 55.6042 424.219 55.9688C424.583 56.3333 425.026 56.5156 425.547 56.5156C425.859 56.5156 426.25 56.4635 426.719 56.3594C427.24 56.2031 427.917 55.9948 428.75 55.7344C430.885 55.0573 433.125 54.3021 435.469 53.4688C437.865 52.5833 440.026 51.5417 441.953 50.3438C443.932 49.1458 445.547 47.7396 446.797 46.125C448.099 44.4583 448.75 42.5312 448.75 40.3438C448.75 38.625 448.385 37.1927 447.656 36.0469C446.927 34.849 445.911 33.8854 444.609 33.1562C443.307 32.375 441.797 31.8281 440.078 31.5156C438.359 31.2031 436.484 31.0469 434.453 31.0469C432.37 31.0469 430.26 31.2031 428.125 31.5156C426.042 31.8281 424.01 32.2708 422.031 32.8438ZM485.938 67.0625C485.938 66.1771 486.042 65.1875 486.25 64.0938C486.458 63 486.562 61.8021 486.562 60.5C486.562 59.6146 486.172 58.9375 485.391 58.4688C484.661 58 483.828 57.4792 482.891 56.9062C481.953 56.3333 481.094 55.6042 480.312 54.7188C479.583 53.8333 479.219 52.5573 479.219 50.8906C479.219 49.6927 479.531 48.4948 480.156 47.2969C480.833 46.099 481.797 45.0052 483.047 44.0156C486.12 41.724 489.297 39.6667 492.578 37.8438C495.911 36.0208 499.219 34.4844 502.5 33.2344C505.833 31.9844 509.115 31.0208 512.344 30.3438C515.573 29.6667 518.672 29.3281 521.641 29.3281C526.641 29.3281 531.328 30.2656 535.703 32.1406C540.13 33.9635 543.958 36.4896 547.188 39.7188C550.469 42.8958 553.047 46.6458 554.922 50.9688C556.849 55.2396 557.812 59.8229 557.812 64.7188C557.812 69.5104 556.797 74.0677 554.766 78.3906C552.786 82.6615 550.104 86.4115 546.719 89.6406C543.333 92.8698 539.349 95.4219 534.766 97.2969C530.234 99.224 525.443 100.188 520.391 100.188C515.443 100.188 510.859 99.3542 506.641 97.6875C502.422 96.0208 498.776 93.7292 495.703 90.8125C492.63 87.8438 490.234 84.3542 488.516 80.3438C486.797 76.2812 485.938 71.8542 485.938 67.0625ZM522.109 86.125C524.297 86.125 526.562 85.6823 528.906 84.7969C531.25 83.9115 533.385 82.6354 535.312 80.9688C537.292 79.25 538.906 77.1667 540.156 74.7188C541.458 72.2708 542.109 69.5104 542.109 66.4375C542.109 63.3125 541.536 60.3958 540.391 57.6875C539.245 54.9792 537.656 52.6354 535.625 50.6562C533.646 48.625 531.276 47.0365 528.516 45.8906C525.807 44.7448 522.865 44.1719 519.688 44.1719C513.906 44.1719 509.479 45.6823 506.406 48.7031C503.333 51.6719 501.797 56.2552 501.797 62.4531C501.797 65.8385 502.292 68.9896 503.281 71.9062C504.323 74.7708 505.755 77.2708 507.578 79.4062C509.401 81.4896 511.536 83.1302 513.984 84.3281C516.484 85.526 519.193 86.125 522.109 86.125ZM584.453 65.3438C584.453 72.3229 585.521 77.7135 587.656 81.5156C589.792 85.3177 592.891 87.2188 596.953 87.2188C599.505 87.2188 601.849 86.4635 603.984 84.9531C606.172 83.4427 608.047 81.3333 609.609 78.625C611.172 75.9167 612.37 72.7135 613.203 69.0156C614.089 65.2656 614.531 61.2031 614.531 56.8281C614.531 54.1719 614.427 51.8802 614.219 49.9531C614.01 47.974 613.776 46.2292 613.516 44.7188C613.307 43.1562 613.099 41.776 612.891 40.5781C612.682 39.3802 612.578 38.2344 612.578 37.1406C612.578 35.474 613.281 34.276 614.688 33.5469C616.094 32.7656 618.333 32.375 621.406 32.375C625.312 32.375 628.333 33.2604 630.469 35.0312C632.656 36.8021 633.75 39.3802 633.75 42.7656C633.75 51.9844 632.839 60.2656 631.016 67.6094C629.245 74.9531 626.667 81.2031 623.281 86.3594C619.948 91.4635 615.885 95.3958 611.094 98.1562C606.302 100.917 600.938 102.297 595 102.297C590.781 102.297 586.875 101.411 583.281 99.6406C579.74 97.9219 576.667 95.5 574.062 92.375C571.51 89.1979 569.505 85.4479 568.047 81.125C566.589 76.75 565.859 71.9583 565.859 66.75C565.859 64.7708 565.911 62.6615 566.016 60.4219C566.12 58.1823 566.276 55.7865 566.484 53.2344C566.693 50.6302 566.953 47.8177 567.266 44.7969C567.63 41.776 568.021 38.4948 568.438 34.9531C568.594 33.4427 569.297 32.2448 570.547 31.3594C571.849 30.4219 573.49 29.9531 575.469 29.9531C577.24 29.9531 578.906 30.1354 580.469 30.5C582.031 30.8646 583.359 31.3594 584.453 31.9844C585.599 32.6094 586.484 33.3385 587.109 34.1719C587.786 35.0052 588.125 35.8906 588.125 36.8281C588.125 37.7656 587.917 39.25 587.5 41.2812C587.135 43.2604 586.719 45.5521 586.25 48.1562C585.833 50.7083 585.417 53.4948 585 56.5156C584.635 59.4844 584.453 62.4271 584.453 65.3438ZM644.531 29.9531C644.531 29.1719 644.87 28.4167 645.547 27.6875C646.224 26.9062 647.109 26.2292 648.203 25.6562C649.297 25.0312 650.521 24.5365 651.875 24.1719C653.281 23.7552 654.688 23.5469 656.094 23.5469C656.875 23.5469 657.526 23.7552 658.047 24.1719C658.62 24.5885 659.115 25.3958 659.531 26.5938C659.948 27.7396 660.312 29.3802 660.625 31.5156C660.99 33.599 661.328 36.3333 661.641 39.7188C661.849 40.7604 662.031 41.5677 662.188 42.1406C662.396 42.6615 662.656 42.9219 662.969 42.9219C663.438 42.9219 663.906 42.1146 664.375 40.5C668.177 29.5104 673.672 24.0156 680.859 24.0156C684.193 24.0156 687.214 25.0573 689.922 27.1406C692.682 29.224 695.234 32.6354 697.578 37.375C699.974 42.0625 702.24 48.2604 704.375 55.9688C706.51 63.625 708.646 73.0781 710.781 84.3281C710.885 84.901 710.964 85.4219 711.016 85.8906C711.068 86.3594 711.094 86.8021 711.094 87.2188C711.094 88.4167 710.807 89.4583 710.234 90.3438C709.714 91.1771 709.01 91.8802 708.125 92.4531C707.24 92.974 706.25 93.3646 705.156 93.625C704.062 93.9375 702.969 94.0938 701.875 94.0938C699.688 94.0938 698.099 93.8594 697.109 93.3906C696.172 92.9219 695.573 92.0365 695.312 90.7344C693.802 82.8177 692.318 75.7865 690.859 69.6406C689.453 63.4948 688.047 58.3385 686.641 54.1719C685.286 49.9531 683.932 46.75 682.578 44.5625C681.224 42.375 679.87 41.2812 678.516 41.2812C677.161 41.2812 675.885 42.1406 674.688 43.8594C673.542 45.526 672.422 48.1562 671.328 51.75C670.234 55.3438 669.167 59.901 668.125 65.4219C667.135 70.9427 666.172 77.5312 665.234 85.1875C664.974 87.2708 663.932 88.9375 662.109 90.1875C660.286 91.4375 657.969 92.0625 655.156 92.0625C653.281 92.0625 651.849 91.6719 650.859 90.8906C649.87 90.1094 649.323 89.0417 649.219 87.6875C648.75 76.8542 648.229 67.9479 647.656 60.9688C647.135 53.9375 646.641 48.3125 646.172 44.0938C645.703 39.8229 645.312 36.6458 645 34.5625C644.688 32.4792 644.531 30.9427 644.531 29.9531ZM771.562 35.8906C771.771 35.9948 772.083 36.0469 772.5 36.0469C773.646 36.0469 774.219 35.2917 774.219 33.7812V9.48438C774.219 6.41146 774.896 4.22396 776.25 2.92188C777.656 1.61979 779.974 0.96875 783.203 0.96875C786.484 0.96875 788.802 1.64583 790.156 3C791.51 4.35417 792.188 6.67188 792.188 9.95312C792.188 11.2031 792.109 13.0521 791.953 15.5C791.797 17.8958 791.615 20.6302 791.406 23.7031C791.25 26.776 791.094 30.0833 790.938 33.625C790.781 37.1146 790.703 40.5781 790.703 44.0156C790.703 49.3281 791.068 53.9115 791.797 57.7656C792.526 61.6198 793.568 64.8229 794.922 67.375C796.276 69.875 797.891 71.75 799.766 73C801.641 74.1979 803.75 74.7969 806.094 74.7969C807.396 74.7969 808.568 74.6406 809.609 74.3281C810.703 73.9635 811.979 73.7812 813.438 73.7812C814.479 73.7812 815.339 74.3281 816.016 75.4219C816.745 76.4635 817.109 77.7396 817.109 79.25C817.109 80.6042 816.693 81.8802 815.859 83.0781C815.078 84.276 813.984 85.3177 812.578 86.2031C811.224 87.0885 809.635 87.7917 807.812 88.3125C805.99 88.7812 804.089 89.0156 802.109 89.0156C797.839 89.0156 793.932 87.7135 790.391 85.1094C786.849 82.4531 784.193 78.4167 782.422 73C782.266 72.1667 782.005 71.75 781.641 71.75C781.224 71.75 780.885 72.1667 780.625 73C779.219 76.8021 777.37 80.2396 775.078 83.3125C772.839 86.3333 770.208 88.9375 767.188 91.125C764.219 93.2604 760.938 94.901 757.344 96.0469C753.802 97.1927 750.052 97.7656 746.094 97.7656C741.927 97.7656 738.099 97.0625 734.609 95.6562C731.172 94.3021 728.203 92.401 725.703 89.9531C723.203 87.4531 721.25 84.5365 719.844 81.2031C718.438 77.8177 717.734 74.1719 717.734 70.2656C717.734 65.2656 718.776 60.5521 720.859 56.125C722.943 51.6979 725.755 47.8438 729.297 44.5625C732.891 41.2292 737.057 38.599 741.797 36.6719C746.536 34.7448 751.589 33.7812 756.953 33.7812C759.141 33.7812 761.458 33.9635 763.906 34.3281C766.354 34.6406 768.906 35.1615 771.562 35.8906ZM749.141 83.7031C752.109 83.7031 754.74 83.0521 757.031 81.75C759.375 80.4479 761.432 78.8073 763.203 76.8281C765.026 74.7969 766.562 72.5833 767.812 70.1875C769.062 67.7396 770.078 65.3698 770.859 63.0781C771.641 60.7865 772.214 58.7292 772.578 56.9062C772.943 55.0833 773.125 53.7812 773.125 53C773.125 52.4271 772.969 51.9323 772.656 51.5156C772.344 51.0469 771.875 50.6823 771.25 50.4219C769.844 50.0573 768.385 49.7448 766.875 49.4844C765.365 49.1719 763.88 48.9115 762.422 48.7031C760.964 48.4948 759.557 48.3385 758.203 48.2344C756.901 48.1302 755.703 48.0781 754.609 48.0781C751.484 48.0781 748.646 48.5469 746.094 49.4844C743.542 50.4219 741.354 51.75 739.531 53.4688C737.76 55.1875 736.38 57.2448 735.391 59.6406C734.401 61.9844 733.906 64.5625 733.906 67.375C733.906 69.875 734.271 72.1406 735 74.1719C735.781 76.151 736.823 77.8438 738.125 79.25C739.479 80.6562 741.094 81.75 742.969 82.5312C744.844 83.3125 746.901 83.7031 749.141 83.7031Z" fill="#000066"/>
</svg>
