<svg width="506" height="326" viewBox="0 0 506 326" fill="none" xmlns="http://www.w3.org/2000/svg">
<rect x="62" y="147" width="162" height="156" rx="15" fill="#000066"/>
<rect x="80" y="162" width="127" height="128" fill="#F5F6FA"/>
<rect x="153" y="187" width="37" height="35" rx="4" fill="#000066"/>
<rect x="153" y="187" width="37" height="35" rx="4" fill="#000066"/>
<rect x="153" y="187" width="37" height="35" rx="4" fill="#000066"/>
<rect x="101" y="239" width="36" height="64" rx="17" fill="#000066"/>
<path d="M128.119 18.7452C135.726 9.16304 150.274 9.16304 157.881 18.7452L242.38 125.187C252.265 137.638 243.398 156 227.499 156H58.5008C42.6024 156 33.7348 137.638 43.6198 125.187L128.119 18.7452Z" fill="#000066"/>
<rect x="240" y="189" width="178" height="137" rx="15" fill="#000066"/>
<rect x="257" y="204" width="144" height="90" fill="#F5F6FA"/>
<rect x="277" y="226" width="23" height="23" rx="4" fill="#000066"/>
<rect x="277" y="226" width="23" height="23" rx="4" fill="#000066"/>
<rect x="277" y="226" width="23" height="23" rx="4" fill="#000066"/>
<rect x="358" y="226" width="23" height="23" rx="4" fill="#000066"/>
<rect x="358" y="226" width="23" height="23" rx="4" fill="#000066"/>
<rect x="358" y="226" width="23" height="23" rx="4" fill="#000066"/>
<rect x="313" y="250" width="32" height="56" rx="16" fill="#000066"/>
<path d="M320.225 117.188C325.988 113.964 333.012 113.964 338.775 117.188L418.741 161.918C435.826 171.474 429.042 197.5 409.466 197.5H249.534C229.958 197.5 223.174 171.474 240.259 161.918L320.225 117.188Z" fill="#000066"/>
</svg>
