<svg width="1440" height="855" viewBox="0 0 1440 855" fill="none" xmlns="http://www.w3.org/2000/svg">
<path d="M103.11 233.121C107.43 228.674 114.57 228.674 118.89 233.121L198.521 315.085C205.297 322.059 200.355 333.75 190.632 333.75H31.3685C21.6449 333.75 16.7032 322.059 23.4788 315.085L103.11 233.121Z" fill="#FCE77A"/>
<path d="M101.778 84.3498C106.181 78.6201 114.819 78.6201 119.222 84.3499L180.467 164.047C186.027 171.282 180.869 181.75 171.745 181.75H49.2546C40.1306 181.75 34.973 171.282 40.5326 164.047L101.778 84.3498Z" fill="#FCE77A"/>
<path d="M102.693 160.57C107.079 155.518 114.921 155.518 119.307 160.57L189.59 241.539C195.771 248.661 190.713 259.75 181.283 259.75H40.7174C31.2872 259.75 26.2288 248.661 32.4104 241.539L102.693 160.57Z" fill="#FCE77A"/>
<path d="M101.475 12.9521C105.852 6.67042 115.148 6.67042 119.525 12.9522L174.23 91.4613C179.312 98.754 174.094 108.75 165.205 108.75H55.7946C46.9062 108.75 41.688 98.754 46.7696 91.4613L101.475 12.9521Z" fill="#FCE77A"/>
<rect y="381" width="1440" height="477" fill="#000066"/>
<path d="M468.805 260.533C473.081 256.347 479.919 256.347 484.195 260.533L546.868 321.89C553.912 328.785 549.03 340.75 539.173 340.75H413.827C403.97 340.75 399.088 328.785 406.132 321.89L468.805 260.533Z" fill="#FCE77A"/>
<rect x="467" y="339" width="18" height="41" fill="#FCE77A"/>
<path d="M467.449 141.566C471.852 136.126 480.148 136.126 484.551 141.566L532.512 200.83C538.332 208.022 533.214 218.75 523.961 218.75H428.039C418.786 218.75 413.668 208.022 419.488 200.83L467.449 141.566Z" fill="#FCE77A"/>
<path d="M468.376 202.899C472.738 198.121 480.262 198.121 484.624 202.899L539.795 263.334C546.241 270.394 541.232 281.75 531.671 281.75H421.329C411.768 281.75 406.759 270.394 413.205 263.334L468.376 202.899Z" fill="#FCE77A"/>
<path d="M467.117 84.1634C471.511 78.1468 480.489 78.1468 484.883 84.1634L527.314 142.262C532.622 149.531 527.431 159.75 518.431 159.75H433.569C424.569 159.75 419.378 149.531 424.686 142.262L467.117 84.1634Z" fill="#FCE77A"/>
<path d="M1271.27 297.297C1275.42 293.688 1281.58 293.688 1285.73 297.297L1326.94 333.207C1334.61 339.887 1329.88 352.5 1319.71 352.5H1237.29C1227.12 352.5 1222.39 339.887 1230.06 333.207L1271.27 297.297Z" fill="#FCE77A"/>
<rect x="1271" y="351" width="14" height="29" fill="#FCE77A"/>
<path d="M1270.36 213.965C1274.72 209.159 1282.28 209.159 1286.64 213.965L1317.65 248.104C1324.07 255.171 1319.05 266.5 1309.51 266.5H1247.49C1237.95 266.5 1232.93 255.172 1239.35 248.104L1270.36 213.965Z" fill="#FCE77A"/>
<path d="M1270.8 257.539C1275.08 253.351 1281.92 253.351 1286.2 257.539L1322.03 292.642C1329.07 299.538 1324.19 311.5 1314.34 311.5H1242.66C1232.81 311.5 1227.93 299.538 1234.97 292.642L1270.8 257.539Z" fill="#FCE77A"/>
<path d="M1269.48 174.431C1273.88 169.042 1282.12 169.042 1286.52 174.431L1313.56 207.542C1319.43 214.726 1314.32 225.5 1305.04 225.5H1250.96C1241.68 225.5 1236.57 214.726 1242.44 207.542L1269.48 174.431Z" fill="#FCE77A"/>
<path d="M252.826 284.471C257.097 280.313 263.903 280.313 268.174 284.471L314.287 329.369C321.359 336.255 316.484 348.25 306.613 348.25H214.387C204.516 348.25 199.641 336.255 206.713 329.369L252.826 284.471Z" fill="#EDD55A"/>
<rect x="253" y="347" width="14" height="33" fill="#EDD55A"/>
<path d="M251.471 189.474C255.872 184.069 264.128 184.069 268.529 189.474L303.409 232.304C309.261 239.49 304.148 250.25 294.88 250.25H225.12C215.852 250.25 210.739 239.49 216.591 232.304L251.471 189.474Z" fill="#EDD55A"/>
<path d="M252.435 238.696C256.787 234.003 264.213 234.003 268.565 238.696L308.746 282.02C315.275 289.06 310.282 300.5 300.68 300.5H220.32C210.718 300.5 205.725 289.06 212.254 282.02L252.435 238.696Z" fill="#EDD55A"/>
<path d="M251.671 142.88C256.069 136.962 264.931 136.962 269.329 142.88L299.843 183.939C305.237 191.196 300.057 201.5 291.014 201.5H229.986C220.943 201.5 215.763 191.196 221.157 183.939L251.671 142.88Z" fill="#EDD55A"/>
<rect x="100" y="330" width="21" height="51" fill="#FCE77A"/>
<path d="M1343.21 261.816C1347.51 257.503 1354.49 257.503 1358.79 261.816L1419.76 322.984C1426.68 329.919 1421.76 341.75 1411.97 341.75H1290.03C1280.24 341.75 1275.32 329.919 1282.24 322.984L1343.21 261.816Z" fill="#EDD55A"/>
<rect x="1342" y="340" width="17" height="41" fill="#EDD55A"/>
<path d="M1341.86 141.969C1346.26 136.378 1354.74 136.378 1359.14 141.969L1406.19 201.693C1411.87 208.908 1406.73 219.5 1397.55 219.5H1303.45C1294.27 219.5 1289.13 208.908 1294.81 201.693L1341.86 141.969Z" fill="#EDD55A"/>
<path d="M1342.75 203.373C1347.12 198.4 1354.88 198.4 1359.25 203.373L1412.85 264.23C1419.11 271.335 1414.06 282.5 1404.6 282.5H1297.4C1287.94 282.5 1282.89 271.335 1289.15 264.23L1342.75 203.373Z" fill="#EDD55A"/>
<path d="M1341.55 84.5026C1345.94 78.3705 1355.06 78.3705 1359.45 84.5026L1400.84 142.349C1406.04 149.629 1400.84 159.75 1391.89 159.75H1309.11C1300.16 159.75 1294.96 149.629 1300.16 142.349L1341.55 84.5026Z" fill="#EDD55A"/>
<path d="M774.098 283.732C778.295 279.915 784.705 279.915 788.902 283.732L837.969 328.363C845.406 335.127 840.621 347.5 830.568 347.5H732.432C722.379 347.5 717.594 335.127 725.031 328.363L774.098 283.732Z" fill="#EDD55A"/>
<rect x="776" y="348" width="14" height="30" fill="#EDD55A"/>
<path d="M772.76 188.316C777.138 183.366 784.862 183.366 789.24 188.316L827.179 231.212C833.459 238.312 828.418 249.5 818.94 249.5H743.06C733.582 249.5 728.541 238.312 734.821 231.212L772.76 188.316Z" fill="#EDD55A"/>
<path d="M773.59 236.186C777.914 231.711 785.086 231.711 789.41 236.186L832.334 280.606C839.08 287.588 834.133 299.25 824.423 299.25H738.577C728.867 299.25 723.92 287.588 730.666 280.606L773.59 236.186Z" fill="#EDD55A"/>
<path d="M772.352 141.999C776.757 136.397 785.243 136.397 789.648 141.999L822.433 183.702C828.107 190.918 822.965 201.5 813.785 201.5H748.215C739.035 201.5 733.893 190.918 739.567 183.701L772.352 141.999Z" fill="#EDD55A"/>
</svg>
