<svg width="54" height="53" viewBox="0 0 54 53" fill="none" xmlns="http://www.w3.org/2000/svg">
<g id="telephone icon ">
<path id="Ellipse 42" d="M26.1612 11.1029C26.1612 13.7411 20.6462 17.6951 17.82 17.6951C14.9937 17.6951 9.06934 12.0214 9.06934 9.38315C9.06934 6.7449 15.4031 0.450195 18.2293 0.450195C21.0556 0.450195 26.1612 8.46461 26.1612 11.1029Z" fill="#000066"/>
<path id="Ellipse 43" d="M42.6734 28.912C39.8683 28.5904 34.992 33.2184 34.6476 35.837C34.3032 38.4556 39.6138 44.6362 42.4189 44.9577C45.2241 45.2793 52.6889 40.1779 53.0333 37.5593C53.3777 34.9407 45.4786 29.2335 42.6734 28.912Z" fill="#000066"/>
<path id="Ellipse 44" d="M50.5165 40.8134C45.9644 44.2544 43.1775 46.1385 36.8053 45.0668C30.4331 43.9951 22.5651 38.9521 17.9145 33.9633C13.264 28.9745 8.44126 21.1049 8.09715 14.9719C7.75303 8.83882 9.31349 7.03928 13.4671 3.17077L23.8958 8.86701C21.4766 11.1202 20.238 14.3721 20.4384 17.9442C20.6388 21.5163 22.2628 25.1325 24.9714 28.0381C27.6801 30.9437 31.2641 32.9142 34.9754 33.5384C38.6868 34.1626 42.2388 33.3922 44.8901 31.3881L50.5165 40.8134Z" fill="#000066"/>
</g>
</svg>
