<svg width="823" height="189" viewBox="0 0 823 189" fill="none" xmlns="http://www.w3.org/2000/svg">
<path d="M55.0781 64.7812C55.0781 64.2083 54.9479 63.349 54.6875 62.2031C54.4271 61.0573 54.1146 59.7552 53.75 58.2969C53.3854 56.7865 52.9688 55.1979 52.5 53.5312C52.0312 51.8125 51.6146 50.1458 51.25 48.5312C50.8854 46.9167 50.5729 45.4062 50.3125 44C50.0521 42.5938 49.9219 41.4219 49.9219 40.4844C49.9219 39.2865 50.2604 38.3229 50.9375 37.5938C51.6146 36.8125 52.474 36.2135 53.5156 35.7969C54.5573 35.3802 55.6771 35.0938 56.875 34.9375C58.0729 34.7812 59.2188 34.7031 60.3125 34.7031C61.6667 34.7031 62.9688 35.0938 64.2188 35.875C65.5208 36.6042 66.4062 37.9323 66.875 39.8594C67.4479 41.8906 67.9167 43.9479 68.2812 46.0312C68.6979 48.0625 69.0625 50.0677 69.375 52.0469C69.6875 53.974 69.974 55.849 70.2344 57.6719C70.5469 59.4948 70.8594 61.1875 71.1719 62.75C71.4844 64 71.875 64.9896 72.3438 65.7188C72.8646 66.4479 73.4635 67.0208 74.1406 67.4375C74.8698 67.8021 75.625 68.0365 76.4062 68.1406C77.2396 68.2448 78.125 68.2969 79.0625 68.2969C80.1042 68.2969 81.224 68.1927 82.4219 67.9844C83.6198 67.776 84.7917 67.6719 85.9375 67.6719C86.6667 67.6719 87.3698 67.8021 88.0469 68.0625C88.776 68.2708 89.4271 68.6875 90 69.3125C90.5729 69.8854 91.0156 70.6927 91.3281 71.7344C91.6927 72.776 91.875 74.1042 91.875 75.7188C91.875 77.0729 91.6146 78.2188 91.0938 79.1562C90.5729 80.0417 89.5833 80.6406 88.125 80.9531L85.3125 81.5781C84.4271 81.7344 83.5938 81.8646 82.8125 81.9688C82.0833 82.0208 81.1458 82.099 80 82.2031C77.5521 82.4635 76.3281 83.5312 76.3281 85.4062C76.3281 85.5625 76.4323 86.2656 76.6406 87.5156C76.849 88.7656 77.1094 90.3281 77.4219 92.2031C77.7865 94.026 78.1771 96.0573 78.5938 98.2969C79.0104 100.484 79.401 102.594 79.7656 104.625C80.1823 106.656 80.5469 108.479 80.8594 110.094C81.1719 111.656 81.4062 112.776 81.5625 113.453C81.8229 114.599 82.0312 115.484 82.1875 116.109C82.3438 116.734 82.4219 117.594 82.4219 118.688C82.4219 119.521 82.1875 120.354 81.7188 121.188C81.25 121.969 80.5469 122.672 79.6094 123.297C78.724 123.922 77.6302 124.417 76.3281 124.781C75.026 125.198 73.5417 125.406 71.875 125.406C70.0521 125.406 68.724 124.859 67.8906 123.766C67.1094 122.62 66.5625 121.318 66.25 119.859C65.5729 117.151 64.9219 114.365 64.2969 111.5C63.724 108.635 63.151 105.797 62.5781 102.984C62.0573 100.172 61.5365 97.4375 61.0156 94.7812C60.5469 92.0729 60.1042 89.4948 59.6875 87.0469C59.4271 85.901 58.9583 85.0677 58.2812 84.5469C57.6042 83.974 56.7448 83.6875 55.7031 83.6875C52.1615 83.6875 48.5938 83.8177 45 84.0781C41.4583 84.2865 37.9688 84.4688 34.5312 84.625C33.3333 84.7292 32.3958 85.1198 31.7188 85.7969C31.0417 86.474 30.7031 87.3594 30.7031 88.4531C30.7031 90.901 30.7292 93.3229 30.7812 95.7188C30.8333 98.1146 30.8594 100.562 30.8594 103.062C30.8594 105.927 30.8073 108.87 30.7031 111.891C30.651 114.911 30.5469 117.828 30.3906 120.641C30.2865 121.682 29.974 122.542 29.4531 123.219C28.9844 123.896 28.3594 124.443 27.5781 124.859C26.849 125.276 25.9896 125.562 25 125.719C24.0625 125.875 23.099 125.953 22.1094 125.953C19.6615 125.953 17.7604 125.536 16.4062 124.703C15.0521 123.922 14.375 122.568 14.375 120.641C14.375 117.724 14.4531 114.677 14.6094 111.5C14.7656 108.323 14.8438 105.12 14.8438 101.891C14.8438 99.7031 14.8177 97.5938 14.7656 95.5625C14.7135 93.4792 14.6875 91.3438 14.6875 89.1562C14.6875 88.1667 14.4531 87.4375 13.9844 86.9688C13.5677 86.4479 13.0469 86.0312 12.4219 85.7188C11.7969 85.4062 11.0938 85.1198 10.3125 84.8594C9.53125 84.5469 8.82812 84.1042 8.20312 83.5312C7.57812 82.9583 7.03125 82.125 6.5625 81.0312C6.14583 79.9375 5.9375 78.4271 5.9375 76.5C5.9375 75.4583 6.11979 74.651 6.48438 74.0781C6.90104 73.4531 7.39583 72.9583 7.96875 72.5938C8.59375 72.2292 9.24479 71.9427 9.92188 71.7344C10.599 71.474 11.224 71.1615 11.7969 70.7969C12.4219 70.4323 12.9167 69.9896 13.2812 69.4688C13.6979 68.8958 13.9062 68.0885 13.9062 67.0469C13.9062 66.4219 13.8802 65.6927 13.8281 64.8594C13.776 63.974 13.724 63.1406 13.6719 62.3594C13.6198 61.5781 13.5677 60.901 13.5156 60.3281C13.4635 59.7031 13.4375 59.2865 13.4375 59.0781C13.4375 57.3073 13.6719 55.901 14.1406 54.8594C14.6615 53.7656 15.2865 52.9583 16.0156 52.4375C16.7448 51.8646 17.5521 51.5 18.4375 51.3438C19.375 51.1354 20.2604 51.0312 21.0938 51.0312C24.2188 51.0312 26.3802 51.6302 27.5781 52.8281C28.8281 53.974 29.5052 55.6667 29.6094 57.9062L29.9219 66.1094C30.026 67.3594 30.3646 68.3229 30.9375 69C31.5104 69.625 32.4479 69.9375 33.75 69.9375L51.4844 69.3125C52.9948 69.2083 53.9583 68.7917 54.375 68.0625C54.8438 67.3333 55.0781 66.2396 55.0781 64.7812ZM180.781 127.359C180.417 120.432 179.818 114.052 178.984 108.219C178.203 102.333 177.37 97.2031 176.484 92.8281C175.651 88.4531 174.896 84.9115 174.219 82.2031C173.594 79.4948 173.281 77.8021 173.281 77.125C173.281 76.1354 173.646 75.1719 174.375 74.2344C175.156 73.2969 176.12 72.4896 177.266 71.8125C178.411 71.0833 179.635 70.5104 180.938 70.0938C182.292 69.6771 183.516 69.4688 184.609 69.4688C185.495 69.4688 186.25 69.625 186.875 69.9375C187.552 70.25 188.021 70.7708 188.281 71.5C188.542 72.3854 188.776 73.3229 188.984 74.3125C189.245 75.25 189.505 76.3958 189.766 77.75C190.078 79.6771 190.495 80.6406 191.016 80.6406C191.589 80.6406 192.24 79.7812 192.969 78.0625C194.01 75.6667 195.13 73.6875 196.328 72.125C197.526 70.5625 198.802 69.3385 200.156 68.4531C201.562 67.5156 202.995 66.8646 204.453 66.5C205.964 66.1354 207.526 65.9531 209.141 65.9531C214.036 65.9531 218.177 67.8802 221.562 71.7344C225 75.5885 227.682 81.1615 229.609 88.4531C229.87 89.2865 230.104 89.8333 230.312 90.0938C230.521 90.3021 230.755 90.4062 231.016 90.4062C231.276 90.4062 231.536 90.3021 231.797 90.0938C232.109 89.8333 232.396 89.3385 232.656 88.6094C233.906 85.224 235.365 82.3594 237.031 80.0156C238.698 77.6198 240.417 75.6927 242.188 74.2344C244.01 72.724 245.859 71.6302 247.734 70.9531C249.609 70.276 251.406 69.9375 253.125 69.9375C256.302 69.9375 259.167 71.1094 261.719 73.4531C264.323 75.7448 266.615 79.3125 268.594 84.1562C270.625 88.9479 272.37 95.0417 273.828 102.438C275.339 109.781 276.589 118.505 277.578 128.609C277.578 131.422 276.719 133.375 275 134.469C273.281 135.615 270.938 136.188 267.969 136.188C266.042 136.188 264.531 135.771 263.438 134.938C262.344 134.104 261.719 133.01 261.562 131.656C260.885 124.417 260.13 117.984 259.297 112.359C258.516 106.682 257.656 101.917 256.719 98.0625C255.781 94.1562 254.74 91.1875 253.594 89.1562C252.5 87.125 251.276 86.1094 249.922 86.1094C249.245 86.1094 248.385 86.6042 247.344 87.5938C246.354 88.5833 245.286 90.4062 244.141 93.0625C242.995 95.6667 241.797 99.2604 240.547 103.844C239.297 108.375 238.099 114.182 236.953 121.266C236.641 123.245 235.677 124.755 234.062 125.797C232.5 126.839 230.573 127.359 228.281 127.359C225.625 127.359 223.776 126.943 222.734 126.109C221.745 125.276 221.198 123.87 221.094 121.891C220.885 118.453 220.521 115.042 220 111.656C219.531 108.219 218.932 104.964 218.203 101.891C217.474 98.7656 216.667 95.901 215.781 93.2969C214.896 90.6406 213.958 88.349 212.969 86.4219C211.979 84.4427 210.964 82.9062 209.922 81.8125C208.88 80.7188 207.865 80.1719 206.875 80.1719C205.573 80.1719 204.297 81.0833 203.047 82.9062C201.849 84.7292 200.755 87.3073 199.766 90.6406C198.828 93.974 198.073 97.9844 197.5 102.672C196.927 107.359 196.641 112.594 196.641 118.375C196.641 119.365 196.667 120.354 196.719 121.344C196.771 122.281 196.797 123.271 196.797 124.312C196.797 125.875 196.536 127.151 196.016 128.141C195.547 129.13 194.844 129.911 193.906 130.484C193.021 131.057 191.979 131.448 190.781 131.656C189.583 131.865 188.281 131.969 186.875 131.969C185.573 131.969 184.531 131.865 183.75 131.656C182.969 131.5 182.37 131.24 181.953 130.875C181.536 130.51 181.25 130.016 181.094 129.391C180.938 128.818 180.833 128.141 180.781 127.359ZM353.906 106.891C355.417 105.589 356.901 104.938 358.359 104.938C359.193 104.938 359.948 105.146 360.625 105.562C361.302 105.979 362.057 106.63 362.891 107.516C363.672 108.714 364.219 109.703 364.531 110.484C364.896 111.214 365.078 111.943 365.078 112.672C365.078 114.234 364.297 115.719 362.734 117.125C360.234 119.208 357.526 121.083 354.609 122.75C351.693 124.365 348.646 125.745 345.469 126.891C342.292 128.036 339.01 128.896 335.625 129.469C332.24 130.094 328.88 130.406 325.547 130.406C321.328 130.406 317.37 129.859 313.672 128.766C309.974 127.724 306.667 126.214 303.75 124.234C300.885 122.255 298.464 119.885 296.484 117.125C294.505 114.312 293.099 111.161 292.266 107.672C291.797 106.214 291.354 105.276 290.938 104.859C290.573 104.391 289.948 104.156 289.062 104.156C287.135 104.156 285.651 103.688 284.609 102.75C283.568 101.812 283.047 100.458 283.047 98.6875C283.047 97.9583 283.099 97.4896 283.203 97.2812L283.359 95.7188C283.62 93.8438 284.115 92.4896 284.844 91.6562C285.625 90.8229 286.823 90.4062 288.438 90.4062H289.609C291.797 90.4062 293.333 89.3906 294.219 87.3594C295.833 83.7656 297.891 80.4844 300.391 77.5156C302.891 74.5469 305.703 72.0208 308.828 69.9375C311.953 67.8021 315.286 66.1615 318.828 65.0156C322.422 63.8177 326.068 63.2188 329.766 63.2188C333.62 63.2188 337.214 63.7917 340.547 64.9375C343.932 66.0312 346.875 67.5677 349.375 69.5469C351.875 71.526 353.828 73.8438 355.234 76.5C356.693 79.1562 357.422 82.0208 357.422 85.0938C357.422 87.2292 357.005 89.1823 356.172 90.9531C355.339 92.724 354.141 94.2865 352.578 95.6406C351.016 96.9427 349.115 98.0104 346.875 98.8438C344.688 99.6771 342.188 100.224 339.375 100.484L312.266 103.219C311.224 103.219 310.365 103.479 309.688 104C309.062 104.521 308.75 105.224 308.75 106.109C308.75 107.464 309.245 108.766 310.234 110.016C311.276 111.266 312.63 112.385 314.297 113.375C316.016 114.312 317.969 115.068 320.156 115.641C322.396 116.214 324.688 116.5 327.031 116.5C329.271 116.5 331.562 116.292 333.906 115.875C336.302 115.406 338.646 114.755 340.938 113.922C343.281 113.089 345.547 112.099 347.734 110.953C349.922 109.755 351.979 108.401 353.906 106.891ZM336.484 86.7344C337.266 86.5781 337.943 86.2135 338.516 85.6406C339.089 85.0156 339.375 84.2604 339.375 83.375C339.375 82.5938 339.089 81.8646 338.516 81.1875C337.943 80.5104 337.161 79.9115 336.172 79.3906C335.182 78.8177 334.036 78.375 332.734 78.0625C331.432 77.75 330.052 77.5938 328.594 77.5938C326.458 77.5938 324.271 77.9062 322.031 78.5312C319.792 79.1562 317.76 79.9896 315.938 81.0312C314.115 82.0208 312.63 83.1406 311.484 84.3906C310.339 85.5885 309.766 86.7865 309.766 87.9844C309.766 89.1823 310.495 89.7812 311.953 89.7812C312.839 89.7812 314.271 89.6771 316.25 89.4688C318.229 89.2604 320.417 89.026 322.812 88.7656C325.208 88.4531 327.63 88.1146 330.078 87.75C332.526 87.3854 334.661 87.0469 336.484 86.7344ZM417.891 130.875C417.057 121.292 415.964 111.812 414.609 102.438C413.307 93.0625 411.719 83.6094 409.844 74.0781C409.688 73.4531 409.479 72.9583 409.219 72.5938C409.01 72.1771 408.698 71.9688 408.281 71.9688C407.969 71.9688 407.604 71.9948 407.188 72.0469C406.823 72.099 406.432 72.125 406.016 72.125C404.036 72.125 402.5 71.6302 401.406 70.6406C400.312 69.651 399.766 68.401 399.766 66.8906C399.766 65.1719 400.469 63.5052 401.875 61.8906C403.333 60.276 405.234 58.7656 407.578 57.3594C409.922 55.901 412.604 54.5729 415.625 53.375C418.646 52.1771 421.745 51.1615 424.922 50.3281C428.151 49.4427 431.328 48.7656 434.453 48.2969C437.578 47.776 440.417 47.5156 442.969 47.5156C447.604 47.5156 451.589 48.0885 454.922 49.2344C458.307 50.3802 461.068 51.8906 463.203 53.7656C465.391 55.6406 466.979 57.8021 467.969 60.25C469.01 62.6979 469.531 65.224 469.531 67.8281C469.531 70.4323 468.958 73.2969 467.812 76.4219C466.719 79.4948 464.844 82.4375 462.188 85.25C461.875 85.6146 461.667 85.9271 461.562 86.1875C461.458 86.3958 461.406 86.6302 461.406 86.8906C461.406 87.3594 461.927 87.6719 462.969 87.8281C465.99 88.0885 468.906 88.8177 471.719 90.0156C474.583 91.2135 477.083 92.776 479.219 94.7031C481.354 96.5781 483.073 98.7917 484.375 101.344C485.677 103.896 486.328 106.604 486.328 109.469C486.328 113.479 485.547 116.995 483.984 120.016C482.474 122.984 480.365 125.458 477.656 127.438C474.948 129.417 471.719 130.875 467.969 131.812C464.271 132.802 460.26 133.297 455.938 133.297C452.552 133.297 449.141 132.984 445.703 132.359C442.318 131.786 439.01 131.031 435.781 130.094C435.573 129.99 435.26 129.938 434.844 129.938C433.958 129.938 433.255 130.458 432.734 131.5C431.849 133.271 430.573 134.651 428.906 135.641C427.292 136.63 425.651 137.125 423.984 137.125C422.474 137.125 421.146 136.63 420 135.641C418.854 134.703 418.151 133.115 417.891 130.875ZM433.047 101.109C431.901 101.526 431.328 102.333 431.328 103.531C431.328 103.688 431.38 104.26 431.484 105.25C431.641 106.24 431.823 107.307 432.031 108.453C432.24 109.807 432.474 111.266 432.734 112.828C432.891 114.182 433.594 115.016 434.844 115.328C436.458 115.797 438.229 116.292 440.156 116.812C442.083 117.281 444.089 117.724 446.172 118.141C448.255 118.557 450.365 118.896 452.5 119.156C454.635 119.417 456.693 119.547 458.672 119.547C460.182 119.547 461.641 119.391 463.047 119.078C464.453 118.714 465.703 118.167 466.797 117.438C467.891 116.708 468.75 115.797 469.375 114.703C470.052 113.557 470.391 112.177 470.391 110.562C470.391 108.219 469.74 106.24 468.438 104.625C467.135 103.01 465.495 101.708 463.516 100.719C461.536 99.7292 459.375 99.026 457.031 98.6094C454.688 98.1406 452.474 97.9062 450.391 97.9062C447.578 97.9062 444.714 98.2188 441.797 98.8438C438.932 99.4688 436.016 100.224 433.047 101.109ZM427.031 63.8438C426.458 64 426.016 64.1823 425.703 64.3906C425.391 64.599 425.234 64.9896 425.234 65.5625C425.234 66.1354 425.339 67.1771 425.547 68.6875C425.807 70.1458 426.094 71.8125 426.406 73.6875C426.771 75.5625 427.135 77.5156 427.5 79.5469C427.917 81.526 428.281 83.3229 428.594 84.9375C428.698 85.9271 428.906 86.6042 429.219 86.9688C429.583 87.3333 430.026 87.5156 430.547 87.5156C430.859 87.5156 431.25 87.4635 431.719 87.3594C432.24 87.2031 432.917 86.9948 433.75 86.7344C435.885 86.0573 438.125 85.3021 440.469 84.4688C442.865 83.5833 445.026 82.5417 446.953 81.3438C448.932 80.1458 450.547 78.7396 451.797 77.125C453.099 75.4583 453.75 73.5312 453.75 71.3438C453.75 69.625 453.385 68.1927 452.656 67.0469C451.927 65.849 450.911 64.8854 449.609 64.1562C448.307 63.375 446.797 62.8281 445.078 62.5156C443.359 62.2031 441.484 62.0469 439.453 62.0469C437.37 62.0469 435.26 62.2031 433.125 62.5156C431.042 62.8281 429.01 63.2708 427.031 63.8438ZM490.938 98.0625C490.938 97.1771 491.042 96.1875 491.25 95.0938C491.458 94 491.562 92.8021 491.562 91.5C491.562 90.6146 491.172 89.9375 490.391 89.4688C489.661 89 488.828 88.4792 487.891 87.9062C486.953 87.3333 486.094 86.6042 485.312 85.7188C484.583 84.8333 484.219 83.5573 484.219 81.8906C484.219 80.6927 484.531 79.4948 485.156 78.2969C485.833 77.099 486.797 76.0052 488.047 75.0156C491.12 72.724 494.297 70.6667 497.578 68.8438C500.911 67.0208 504.219 65.4844 507.5 64.2344C510.833 62.9844 514.115 62.0208 517.344 61.3438C520.573 60.6667 523.672 60.3281 526.641 60.3281C531.641 60.3281 536.328 61.2656 540.703 63.1406C545.13 64.9635 548.958 67.4896 552.188 70.7188C555.469 73.8958 558.047 77.6458 559.922 81.9688C561.849 86.2396 562.812 90.8229 562.812 95.7188C562.812 100.51 561.797 105.068 559.766 109.391C557.786 113.661 555.104 117.411 551.719 120.641C548.333 123.87 544.349 126.422 539.766 128.297C535.234 130.224 530.443 131.188 525.391 131.188C520.443 131.188 515.859 130.354 511.641 128.688C507.422 127.021 503.776 124.729 500.703 121.812C497.63 118.844 495.234 115.354 493.516 111.344C491.797 107.281 490.938 102.854 490.938 98.0625ZM527.109 117.125C529.297 117.125 531.562 116.682 533.906 115.797C536.25 114.911 538.385 113.635 540.312 111.969C542.292 110.25 543.906 108.167 545.156 105.719C546.458 103.271 547.109 100.51 547.109 97.4375C547.109 94.3125 546.536 91.3958 545.391 88.6875C544.245 85.9792 542.656 83.6354 540.625 81.6562C538.646 79.625 536.276 78.0365 533.516 76.8906C530.807 75.7448 527.865 75.1719 524.688 75.1719C518.906 75.1719 514.479 76.6823 511.406 79.7031C508.333 82.6719 506.797 87.2552 506.797 93.4531C506.797 96.8385 507.292 99.9896 508.281 102.906C509.323 105.771 510.755 108.271 512.578 110.406C514.401 112.49 516.536 114.13 518.984 115.328C521.484 116.526 524.193 117.125 527.109 117.125ZM589.453 96.3438C589.453 103.323 590.521 108.714 592.656 112.516C594.792 116.318 597.891 118.219 601.953 118.219C604.505 118.219 606.849 117.464 608.984 115.953C611.172 114.443 613.047 112.333 614.609 109.625C616.172 106.917 617.37 103.714 618.203 100.016C619.089 96.2656 619.531 92.2031 619.531 87.8281C619.531 85.1719 619.427 82.8802 619.219 80.9531C619.01 78.974 618.776 77.2292 618.516 75.7188C618.307 74.1562 618.099 72.776 617.891 71.5781C617.682 70.3802 617.578 69.2344 617.578 68.1406C617.578 66.474 618.281 65.276 619.688 64.5469C621.094 63.7656 623.333 63.375 626.406 63.375C630.312 63.375 633.333 64.2604 635.469 66.0312C637.656 67.8021 638.75 70.3802 638.75 73.7656C638.75 82.9844 637.839 91.2656 636.016 98.6094C634.245 105.953 631.667 112.203 628.281 117.359C624.948 122.464 620.885 126.396 616.094 129.156C611.302 131.917 605.938 133.297 600 133.297C595.781 133.297 591.875 132.411 588.281 130.641C584.74 128.922 581.667 126.5 579.062 123.375C576.51 120.198 574.505 116.448 573.047 112.125C571.589 107.75 570.859 102.958 570.859 97.75C570.859 95.7708 570.911 93.6615 571.016 91.4219C571.12 89.1823 571.276 86.7865 571.484 84.2344C571.693 81.6302 571.953 78.8177 572.266 75.7969C572.63 72.776 573.021 69.4948 573.438 65.9531C573.594 64.4427 574.297 63.2448 575.547 62.3594C576.849 61.4219 578.49 60.9531 580.469 60.9531C582.24 60.9531 583.906 61.1354 585.469 61.5C587.031 61.8646 588.359 62.3594 589.453 62.9844C590.599 63.6094 591.484 64.3385 592.109 65.1719C592.786 66.0052 593.125 66.8906 593.125 67.8281C593.125 68.7656 592.917 70.25 592.5 72.2812C592.135 74.2604 591.719 76.5521 591.25 79.1562C590.833 81.7083 590.417 84.4948 590 87.5156C589.635 90.4844 589.453 93.4271 589.453 96.3438ZM649.531 60.9531C649.531 60.1719 649.87 59.4167 650.547 58.6875C651.224 57.9062 652.109 57.2292 653.203 56.6562C654.297 56.0312 655.521 55.5365 656.875 55.1719C658.281 54.7552 659.688 54.5469 661.094 54.5469C661.875 54.5469 662.526 54.7552 663.047 55.1719C663.62 55.5885 664.115 56.3958 664.531 57.5938C664.948 58.7396 665.312 60.3802 665.625 62.5156C665.99 64.599 666.328 67.3333 666.641 70.7188C666.849 71.7604 667.031 72.5677 667.188 73.1406C667.396 73.6615 667.656 73.9219 667.969 73.9219C668.438 73.9219 668.906 73.1146 669.375 71.5C673.177 60.5104 678.672 55.0156 685.859 55.0156C689.193 55.0156 692.214 56.0573 694.922 58.1406C697.682 60.224 700.234 63.6354 702.578 68.375C704.974 73.0625 707.24 79.2604 709.375 86.9688C711.51 94.625 713.646 104.078 715.781 115.328C715.885 115.901 715.964 116.422 716.016 116.891C716.068 117.359 716.094 117.802 716.094 118.219C716.094 119.417 715.807 120.458 715.234 121.344C714.714 122.177 714.01 122.88 713.125 123.453C712.24 123.974 711.25 124.365 710.156 124.625C709.062 124.938 707.969 125.094 706.875 125.094C704.688 125.094 703.099 124.859 702.109 124.391C701.172 123.922 700.573 123.036 700.312 121.734C698.802 113.818 697.318 106.786 695.859 100.641C694.453 94.4948 693.047 89.3385 691.641 85.1719C690.286 80.9531 688.932 77.75 687.578 75.5625C686.224 73.375 684.87 72.2812 683.516 72.2812C682.161 72.2812 680.885 73.1406 679.688 74.8594C678.542 76.526 677.422 79.1562 676.328 82.75C675.234 86.3438 674.167 90.901 673.125 96.4219C672.135 101.943 671.172 108.531 670.234 116.188C669.974 118.271 668.932 119.938 667.109 121.188C665.286 122.438 662.969 123.062 660.156 123.062C658.281 123.062 656.849 122.672 655.859 121.891C654.87 121.109 654.323 120.042 654.219 118.688C653.75 107.854 653.229 98.9479 652.656 91.9688C652.135 84.9375 651.641 79.3125 651.172 75.0938C650.703 70.8229 650.312 67.6458 650 65.5625C649.688 63.4792 649.531 61.9427 649.531 60.9531ZM776.562 66.8906C776.771 66.9948 777.083 67.0469 777.5 67.0469C778.646 67.0469 779.219 66.2917 779.219 64.7812V40.4844C779.219 37.4115 779.896 35.224 781.25 33.9219C782.656 32.6198 784.974 31.9688 788.203 31.9688C791.484 31.9688 793.802 32.6458 795.156 34C796.51 35.3542 797.188 37.6719 797.188 40.9531C797.188 42.2031 797.109 44.0521 796.953 46.5C796.797 48.8958 796.615 51.6302 796.406 54.7031C796.25 57.776 796.094 61.0833 795.938 64.625C795.781 68.1146 795.703 71.5781 795.703 75.0156C795.703 80.3281 796.068 84.9115 796.797 88.7656C797.526 92.6198 798.568 95.8229 799.922 98.375C801.276 100.875 802.891 102.75 804.766 104C806.641 105.198 808.75 105.797 811.094 105.797C812.396 105.797 813.568 105.641 814.609 105.328C815.703 104.964 816.979 104.781 818.438 104.781C819.479 104.781 820.339 105.328 821.016 106.422C821.745 107.464 822.109 108.74 822.109 110.25C822.109 111.604 821.693 112.88 820.859 114.078C820.078 115.276 818.984 116.318 817.578 117.203C816.224 118.089 814.635 118.792 812.812 119.312C810.99 119.781 809.089 120.016 807.109 120.016C802.839 120.016 798.932 118.714 795.391 116.109C791.849 113.453 789.193 109.417 787.422 104C787.266 103.167 787.005 102.75 786.641 102.75C786.224 102.75 785.885 103.167 785.625 104C784.219 107.802 782.37 111.24 780.078 114.312C777.839 117.333 775.208 119.938 772.188 122.125C769.219 124.26 765.938 125.901 762.344 127.047C758.802 128.193 755.052 128.766 751.094 128.766C746.927 128.766 743.099 128.062 739.609 126.656C736.172 125.302 733.203 123.401 730.703 120.953C728.203 118.453 726.25 115.536 724.844 112.203C723.438 108.818 722.734 105.172 722.734 101.266C722.734 96.2656 723.776 91.5521 725.859 87.125C727.943 82.6979 730.755 78.8438 734.297 75.5625C737.891 72.2292 742.057 69.599 746.797 67.6719C751.536 65.7448 756.589 64.7812 761.953 64.7812C764.141 64.7812 766.458 64.9635 768.906 65.3281C771.354 65.6406 773.906 66.1615 776.562 66.8906ZM754.141 114.703C757.109 114.703 759.74 114.052 762.031 112.75C764.375 111.448 766.432 109.807 768.203 107.828C770.026 105.797 771.562 103.583 772.812 101.188C774.062 98.7396 775.078 96.3698 775.859 94.0781C776.641 91.7865 777.214 89.7292 777.578 87.9062C777.943 86.0833 778.125 84.7812 778.125 84C778.125 83.4271 777.969 82.9323 777.656 82.5156C777.344 82.0469 776.875 81.6823 776.25 81.4219C774.844 81.0573 773.385 80.7448 771.875 80.4844C770.365 80.1719 768.88 79.9115 767.422 79.7031C765.964 79.4948 764.557 79.3385 763.203 79.2344C761.901 79.1302 760.703 79.0781 759.609 79.0781C756.484 79.0781 753.646 79.5469 751.094 80.4844C748.542 81.4219 746.354 82.75 744.531 84.4688C742.76 86.1875 741.38 88.2448 740.391 90.6406C739.401 92.9844 738.906 95.5625 738.906 98.375C738.906 100.875 739.271 103.141 740 105.172C740.781 107.151 741.823 108.844 743.125 110.25C744.479 111.656 746.094 112.75 747.969 113.531C749.844 114.312 751.901 114.703 754.141 114.703Z" fill="#000066"/>
<path d="M136.629 53.035C137.984 51.8141 140.105 52.0748 141.125 53.5873L167.094 92.1275C168.538 94.2709 166.777 97.1157 164.215 96.7783L104.235 88.8818C101.697 88.5477 100.717 85.3924 102.618 83.6787L136.629 53.035Z" fill="#000066"/>
<rect x="108.079" y="84.8677" width="54.0755" height="41.1486" rx="7" transform="rotate(7.5 108.079 84.8677)" fill="#000066"/>
<rect x="121.876" y="94.6709" width="24.6928" height="18.8008" rx="3" transform="rotate(7.5 121.876 94.6709)" fill="#F5F6F8"/>
</svg>
